<mxfile host="drawio-plugin" modified="2021-07-14T14:17:00.958Z" agent="5.0 (Macintosh; Intel Mac OS X 11_4_0) AppleWebKit/537.36 (KHTML, like Gecko) Chrome/87.0.4280.141 Safari/537.36" etag="dAVnx4fFxdBvu6F4CjUu" version="14.7.4" type="embed"><diagram id="hhMV_U4f5UcyguVZydRo" name="Page-1"><mxGraphModel dx="1144" dy="783" grid="1" gridSize="10" guides="1" tooltips="1" connect="1" arrows="1" fold="1" page="1" pageScale="1" pageWidth="827" pageHeight="1169" math="0" shadow="0"><root><mxCell id="0"/><mxCell id="1" parent="0"/><mxCell id="D17oQIRVx2GNHXHz7LJo-11" style="edgeStyle=orthogonalEdgeStyle;rounded=0;orthogonalLoop=1;jettySize=auto;html=1;exitX=1;exitY=0.5;exitDx=0;exitDy=0;entryX=0.5;entryY=0;entryDx=0;entryDy=0;" parent="1" source="D17oQIRVx2GNHXHz7LJo-1" target="D17oQIRVx2GNHXHz7LJo-10" edge="1"><mxGeometry relative="1" as="geometry"/></mxCell><mxCell id="D17oQIRVx2GNHXHz7LJo-1" value="Insert a player data&lt;br&gt;into cache storage" style="rounded=1;whiteSpace=wrap;html=1;" parent="1" vertex="1"><mxGeometry x="390" y="250" width="120" height="60" as="geometry"/></mxCell><mxCell id="D17oQIRVx2GNHXHz7LJo-4" style="edgeStyle=orthogonalEdgeStyle;rounded=0;orthogonalLoop=1;jettySize=auto;html=1;exitX=1;exitY=0.5;exitDx=0;exitDy=0;exitPerimeter=0;entryX=0;entryY=0.5;entryDx=0;entryDy=0;" parent="1" source="D17oQIRVx2GNHXHz7LJo-3" target="D17oQIRVx2GNHXHz7LJo-1" edge="1"><mxGeometry relative="1" as="geometry"/></mxCell><mxCell id="D17oQIRVx2GNHXHz7LJo-5" value="Request a player data" style="edgeLabel;html=1;align=center;verticalAlign=middle;resizable=0;points=[];" parent="D17oQIRVx2GNHXHz7LJo-4" vertex="1" connectable="0"><mxGeometry x="0.0636" y="4" relative="1" as="geometry"><mxPoint x="-24" y="-16" as="offset"/></mxGeometry></mxCell><mxCell id="D17oQIRVx2GNHXHz7LJo-3" value="Database&lt;br&gt;server" style="shape=cylinder3;whiteSpace=wrap;html=1;boundedLbl=1;backgroundOutline=1;size=15;" parent="1" vertex="1"><mxGeometry x="90" y="240" width="60" height="80" as="geometry"/></mxCell><mxCell id="D17oQIRVx2GNHXHz7LJo-8" style="edgeStyle=orthogonalEdgeStyle;rounded=0;orthogonalLoop=1;jettySize=auto;html=1;entryX=0.5;entryY=1;entryDx=0;entryDy=0;entryPerimeter=0;" parent="1" source="D17oQIRVx2GNHXHz7LJo-7" target="D17oQIRVx2GNHXHz7LJo-3" edge="1"><mxGeometry relative="1" as="geometry"/></mxCell><mxCell id="D17oQIRVx2GNHXHz7LJo-9" value="Request update data&amp;nbsp;" style="edgeLabel;html=1;align=center;verticalAlign=middle;resizable=0;points=[];" parent="D17oQIRVx2GNHXHz7LJo-8" vertex="1" connectable="0"><mxGeometry x="-0.2587" relative="1" as="geometry"><mxPoint x="4" y="-20" as="offset"/></mxGeometry></mxCell><mxCell id="D17oQIRVx2GNHXHz7LJo-7" value="User request update&lt;br&gt;point" style="rounded=1;whiteSpace=wrap;html=1;" parent="1" vertex="1"><mxGeometry x="365" y="420" width="170" height="60" as="geometry"/></mxCell><mxCell id="D17oQIRVx2GNHXHz7LJo-12" style="edgeStyle=orthogonalEdgeStyle;rounded=0;orthogonalLoop=1;jettySize=auto;html=1;entryX=1;entryY=0.5;entryDx=0;entryDy=0;exitX=0.5;exitY=1;exitDx=0;exitDy=0;" parent="1" source="D17oQIRVx2GNHXHz7LJo-10" target="D17oQIRVx2GNHXHz7LJo-7" edge="1"><mxGeometry relative="1" as="geometry"/></mxCell><mxCell id="D17oQIRVx2GNHXHz7LJo-13" value="Usage&lt;br&gt;" style="edgeStyle=orthogonalEdgeStyle;rounded=0;orthogonalLoop=1;jettySize=auto;html=1;" parent="1" source="D17oQIRVx2GNHXHz7LJo-10" edge="1"><mxGeometry x="0.1429" y="20" relative="1" as="geometry"><mxPoint x="780" y="360" as="targetPoint"/><mxPoint as="offset"/></mxGeometry></mxCell><mxCell id="D17oQIRVx2GNHXHz7LJo-10" value="Bukkit Interface" style="rounded=1;whiteSpace=wrap;html=1;" parent="1" vertex="1"><mxGeometry x="590" y="330" width="120" height="60" as="geometry"/></mxCell></root></mxGraphModel></diagram></mxfile>